<svg width="17" height="17" viewBox="0 0 17 17" fill="none" xmlns="http://www.w3.org/2000/svg">
<path d="M17.0001 8.69726C17.0001 8.14192 16.9464 7.56867 16.8568 7.03125H9.10001V10.202H13.5427C13.3636 11.2231 12.7724 12.1188 11.8946 12.6921L14.5459 14.7522C16.1044 13.3012 17.0001 11.1873 17.0001 8.69726Z" fill="#4280EF"/>
<path d="M9.09984 16.7229C11.3212 16.7229 13.1842 15.9885 14.5457 14.7345L11.8944 12.6923C11.16 13.1939 10.2105 13.4805 9.09984 13.4805C6.95015 13.4805 5.14083 12.0294 4.478 10.0947L1.75507 12.1907C3.15236 14.9674 5.98279 16.7229 9.09984 16.7229Z" fill="#34A353"/>
<path d="M4.47805 10.0768C4.13769 9.05569 4.13769 7.94502 4.47805 6.92392L1.75512 4.81006C0.590702 7.13889 0.590702 9.87974 1.75512 12.1907L4.47805 10.0768Z" fill="#F6B704"/>
<path d="M9.09984 3.53802C10.2643 3.5201 11.4108 3.96796 12.2527 4.77409L14.5995 2.40943C13.1126 1.01213 11.142 0.259742 9.09984 0.277656C5.98279 0.277656 3.15236 2.03324 1.75507 4.80992L4.478 6.92378C5.14083 4.97114 6.95015 3.53802 9.09984 3.53802Z" fill="#E54335"/>
</svg>
